<?xml version="1.0" encoding="utf-8"?>
<!-- Generator: Adobe Illustrator 16.0.0, SVG Export Plug-In . SVG Version: 6.00 Build 0)  -->
<!DOCTYPE svg PUBLIC "-//W3C//DTD SVG 1.1//EN" "http://www.w3.org/Graphics/SVG/1.1/DTD/svg11.dtd">
<svg version="1.1" id="Layer_1" xmlns="http://www.w3.org/2000/svg" xmlns:xlink="http://www.w3.org/1999/xlink" x="0px" y="0px"
	 width="216px" height="216px" viewBox="-145.291 444.5 216 216" enable-background="new -145.291 444.5 216 216"
	 xml:space="preserve">
<g>
	<path fill="#FFFFFF" stroke="#FFFFFF" stroke-miterlimit="10" d="M60.906,552.5c0,54.229-43.966,98.197-98.197,98.197
		c-54.234,0-98.198-43.969-98.198-98.197c0-54.234,43.963-98.197,98.198-98.197C16.94,454.303,60.906,498.266,60.906,552.5z"/>
	<path display="none" fill="#FFFFFF" d="M-86.279,592.311c0,1.461-0.357,2.633-1.811,2.674v0.025c-0.78,0.061,0.187,0.09-0.439,0.09
		c-4.921,0-8.399-1.086-10.439-3.246c-2.039-2.168-3.056-5.832-3.056-11.006v-17.635c0-2.791-0.41-4.867-1.229-6.23
		c-0.807-1.354-2.219-2.324-4.229-2.926c-1.049-0.41-1.74-1.416-1.747-2.543c0-1.152,0.705-2.129,1.699-2.545
		c3.67-0.977,5.507-3.857,5.507-8.654V521.5c0-4.674,1.047-8.043,3.15-10.113c2.099-2.068,5.549-3.104,10.345-3.104h0.439v0.008
		c1.504,0.006,1.911,1.229,1.911,2.727c0,1.506-0.407,1.889-1.911,1.898v0.029c-3.607,0.068-6.032,0.68-7.288,1.838
		c-1.256,1.16-1.882,3.404-1.882,6.725v19.178c0,2.164-0.282,4.156-0.849,5.969c-0.656,2.045-2.342,3.738-5.033,5.084
		c2.162,1.158,3.682,2.568,4.561,4.232c0.876,1.664,1.317,4.018,1.317,7.057v18.48c0,3.566,0.594,5.939,1.787,7.115
		c1.191,1.18,3.653,1.785,7.38,1.811v0.039C-86.636,590.504-86.279,590.844-86.279,592.311L-86.279,592.311z M13.508,590.467v-0.039
		c3.724-0.025,6.186-0.627,7.376-1.812c1.198-1.172,1.793-3.547,1.793-7.117v-18.475c0-3.041,0.439-5.395,1.313-7.059
		c0.88-1.662,2.398-3.068,4.562-4.227c-2.693-1.352-4.377-3.045-5.037-5.088c-0.58-1.934-0.861-3.947-0.839-5.965v-19.182
		c0-3.324-0.627-5.561-1.892-6.721c-1.246-1.158-3.679-1.773-7.277-1.844v-0.029c-1.508-0.01-2.731-0.387-2.731-1.893
		c0-1.504,1.223-2.727,2.731-2.734v-0.006h0.435c4.796,0,8.248,1.035,10.348,3.104c2.101,2.074,3.154,5.445,3.154,10.113v18.814
		c0,4.795,1.834,7.678,5.504,8.654c1.402,0.572,2.072,2.17,1.498,3.568c-0.281,0.699-0.846,1.25-1.547,1.518
		c-2.007,0.604-3.422,1.572-4.232,2.928c-0.816,1.363-1.22,3.441-1.22,6.23v17.635c0,5.174-1.025,8.838-3.061,11.004
		c-2.037,2.162-5.526,3.248-10.444,3.248c-0.627,0,0.339-0.029-0.435-0.09v-0.025c-1.46-0.043-2.632-1.215-2.632-2.674
		C10.876,590.838,12.048,590.504,13.508,590.467z"/>
	<path display="none" fill="#FFFFFF" d="M-50.593,543.299c2.856,0,5.29-1,7.308-2.99c2.021-1.996,3.027-4.395,3.027-7.191
		c0-2.783-1.014-5.162-3.037-7.146c-2.026-1.979-4.455-2.975-7.298-2.975c-2.841,0-5.271,0.988-7.284,2.969
		c-1.961,1.855-3.055,4.449-3.015,7.152c0,2.797,1.007,5.195,3.015,7.191C-55.962,542.262-53.327,543.34-50.593,543.299z
		 M-54.744,528.961c1.145-1.16,2.524-1.732,4.151-1.732c1.639,0,3.024,0.572,4.161,1.727c1.138,1.148,1.708,2.529,1.708,4.162
		c0,1.658-0.57,3.061-1.708,4.207c-1.085,1.127-2.593,1.754-4.161,1.723c-1.626,0-3.006-0.57-4.151-1.723
		c-1.124-1.092-1.747-2.6-1.721-4.17C-56.465,531.521-55.887,530.117-54.744,528.961z M-0.823,527.494
		c2.817,0,4.655,1.248,5.295,3.555H-6.023C-5.19,528.742-3.391,527.494-0.823,527.494z M6.288,563.564
		c-1.764-1.9-4.255-2.957-6.845-2.906c-2.232-0.045-4.39,0.781-6.02,2.299v-6.902c-0.067-1.242-1.13-2.197-2.373-2.133
		c-1.152,0.064-2.071,0.982-2.132,2.133v22.805c0,1.162,0.951,2.111,2.113,2.111c1.159,0,2.101-0.949,2.106-2.111h0.022v-0.611
		c0.919,1.006,1.969,1.717,3.122,2.129c1.05,0.391,2.126,0.586,3.233,0.586c2.696,0,4.963-0.986,6.798-2.955
		c1.841-1.969,2.756-4.389,2.756-7.258C9.077,567.895,8.142,565.502,6.288,563.564z M2.741,574.816
		c-1.031,1.076-2.466,1.668-3.954,1.633c-1.479,0.039-2.907-0.535-3.955-1.578c-1.056-1.035-1.636-2.463-1.598-3.939
		c0-1.699,0.516-3.088,1.543-4.164c1.024-1.07,2.366-1.613,4.012-1.613c1.565,0,2.882,0.543,3.948,1.619
		c1.06,1.082,1.594,2.41,1.594,4.012C4.332,572.389,3.803,573.734,2.741,574.816z M-19.374,562.971v15.887
		c-0.016,1.172-0.977,2.113-2.151,2.105c-1.175,0.01-2.136-0.934-2.146-2.109c0-0.08,0.013-0.146,0.02-0.221v-0.875
		c-0.394,0.516-0.711,0.9-0.938,1.15c-1.255,1.371-3.052,2.055-5.396,2.055c-1.46,0.02-2.907-0.32-4.207-0.986
		c-1.261-0.668-2.188-1.539-2.777-2.646c-0.525-0.984-0.844-2.172-0.957-3.596c-0.055-1.256-0.076-2.51-0.06-3.762v-6.996v-0.006
		c0-1.236,1.023-2.246,2.294-2.246c1.267,0,2.288,1.01,2.288,2.246c0,0.123-0.013,0.248-0.039,0.371v6.627
		c0,1.312,0.019,2.119,0.039,2.389c0,0.912,0.179,1.729,0.525,2.465c0.583,1.268,1.812,1.902,3.682,1.902
		c3.49,0,5.244-2.254,5.244-6.76v-7.002c0-1.236,1.021-2.244,2.286-2.244C-20.398,560.719-19.374,561.734-19.374,562.971
		L-19.374,562.971z M-18.087,516.385c-1.223,0.006-2.206,0.998-2.203,2.221c0,0.004,0,0.008,0,0.01v6.68
		c-1.069-0.916-2.116-1.547-3.164-1.883c-0.903-0.281-1.844-0.422-2.789-0.416c-2.696,0-4.959,0.971-6.781,2.904
		c-1.822,1.92-2.731,4.322-2.731,7.188c0,2.869,0.9,5.285,2.719,7.258c1.815,1.973,4.043,2.953,6.688,2.953
		c2.193,0,4.002-0.615,5.446-1.846c0.311-0.256,0.586-0.543,0.83-0.863v0.447h0.025v0.004c0,1.162,0.929,2.104,2.081,2.104
		c1.149,0,2.081-0.947,2.081-2.104v-22.428C-15.877,517.389-16.864,516.395-18.087,516.385z M-21.702,537.176
		c-1.041,1.07-2.347,1.607-3.922,1.607c-1.518,0-2.812-0.537-3.868-1.617c-1.041-1.057-1.61-2.486-1.582-3.973
		c0-1.617,0.532-2.971,1.575-4.061c1.05-1.092,2.34-1.635,3.875-1.635c1.626,0,2.942,0.527,3.957,1.578
		c1.018,1.057,1.524,2.41,1.524,4.086C-20.143,534.76-20.661,536.104-21.702,537.176z M-43.592,578.229
		c0,1.127-0.919,2.051-2.049,2.051h-11.341c-1.135,0-2.054-0.92-2.054-2.053c0-1.137,0.919-2.057,2.054-2.057l0,0h3.473v-17.451
		h-3.473v-0.014c-1.133,0-2.051-0.922-2.051-2.053c0-1.133,0.917-2.053,2.051-2.053h5.888c1.13,0,2.049,0.924,2.049,2.051
		c0,0.031-0.007,0.066-0.01,0.096h0.006v19.424h3.41C-44.514,576.17-43.592,577.092-43.592,578.229z M-77.598,566.645
		c-1.06,1.111-1.647,2.588-1.642,4.125c0,1.502,0.55,2.99,1.642,4.131c2.07,2.189,5.523,2.285,7.712,0.213
		c0.075-0.066,0.146-0.141,0.216-0.213c0.82-0.85,2.682-0.85,3.563,0c0.886,0.852,0.886,2.234,0,3.08
		c-2.006,1.924-4.681,2.992-7.461,2.982c-2.781,0.01-5.459-1.059-7.465-2.982c-3.981-3.799-4.13-10.105-0.334-14.086
		c0.107-0.111,0.217-0.221,0.331-0.33c4.118-3.973,10.819-3.973,14.93,0c0.886,0.852,0.886,2.229,0,3.08
		c-0.879,0.852-2.744,0.852-3.563,0c-2.07-2.186-5.523-2.285-7.713-0.211C-77.457,566.502-77.529,566.574-77.598,566.645z
		 M-77.667,528.99c-1.083,1.137-1.624,2.625-1.624,4.119c0,1.496,0.544,2.992,1.624,4.131c2.023,2.172,5.422,2.287,7.59,0.264
		c0.091-0.084,0.177-0.174,0.262-0.264c0.81-0.852,2.653-0.852,3.527,0c0.85,0.82,0.875,2.172,0.058,3.02
		c-0.018,0.02-0.037,0.039-0.058,0.057c-1.977,1.926-4.63,2.994-7.39,2.982c-2.757,0.012-5.408-1.057-7.383-2.982
		c-3.98-3.852-4.084-10.203-0.23-14.18c0.075-0.08,0.152-0.156,0.23-0.23c4.122-3.977,10.652-3.977,14.773,0
		c0.852,0.811,0.882,2.158,0.069,3.01c-0.022,0.025-0.045,0.049-0.069,0.07c-0.868,0.848-2.717,0.848-3.527,0
		c-2.022-2.168-5.419-2.285-7.586-0.262C-77.492,528.807-77.582,528.896-77.667,528.99z M7.834,540.496
		c0.88-0.854,0.903-2.26,0.051-3.141c-0.019-0.02-0.035-0.039-0.051-0.055c-0.903-0.883-2.562-0.883-3.407,0h0.006
		c-1.088,0.922-2.462,1.445-3.89,1.477h-0.72c-1.55,0-2.862-0.352-3.916-1.07c-1.024-0.682-1.735-1.744-1.975-2.951H6.656
		c1.441-0.02,2.587-1.197,2.568-2.635l-0.006-0.189l0.006-0.047c-0.23-2.207-1.188-4.275-2.722-5.883
		c-1.879-2.004-4.252-3.01-7.121-3.01c-2.798,0-5.167,1-7.175,2.984c-1.969,1.896-3.061,4.521-3.013,7.252
		c0,2.91,0.974,5.314,2.907,7.213c1.94,1.902,4.406,2.85,7.387,2.85h0.989c2.744,0.01,5.392-1.012,7.425-2.861L7.834,540.496z"/>
</g>
<g>
	<path id="XMLID_5_" fill="#51AEE2" d="M-1.091,605.961c-0.645,0-1.226-0.193-1.742-0.58c-1.226-0.969-1.419-2.775-0.452-4.002
		l44.395-56.01c0.968-1.225,2.773-1.42,4.001-0.451c1.226,0.969,1.419,2.775,0.451,4L1.167,604.93
		C0.587,605.639-0.252,605.961-1.091,605.961"/>
	<path id="XMLID_4_" fill="#F6891F" d="M-13.029,498.975c-10.646,0-19.809,6.129-24.263,15.035
		c-4.452-8.906-13.679-15.035-24.262-15.035c-14.971,0-27.102,12.131-27.102,27.1c0,1.551,1.29,2.842,2.839,2.842
		c1.549,0,2.839-1.291,2.839-2.842c0-11.807,9.614-21.422,21.423-21.422c11.809,0,21.423,9.615,21.423,21.422
		c0,1.551,1.291,2.842,2.839,2.842c1.549,0,2.84-1.291,2.84-2.842c0-11.807,9.614-21.422,21.422-21.422
		c11.809,0,21.423,9.615,21.423,21.422c0,1.551,1.292,2.842,2.84,2.842c1.549,0,2.84-1.291,2.84-2.842
		C14.074,511.17,1.942,498.975-13.029,498.975"/>
	<path id="XMLID_3_" fill="#F6891F" d="M9.363,543.887c-1.226-0.969-3.033-0.775-4.001,0.449l-42.717,54.205l-42.717-54.205
		c-0.968-1.225-2.775-1.418-4.001-0.449c-1.226,0.967-1.419,2.773-0.451,4l44.911,57.043c0.516,0.709,1.355,1.096,2.193,1.096
		c0.839,0,1.678-0.387,2.194-1.096l44.912-57.043C10.847,546.66,10.589,544.854,9.363,543.887"/>
	<path id="XMLID_2_" fill="#51AEE2" d="M-73.491,605.961c-0.838,0-1.677-0.387-2.194-1.098l-44.459-56.01
		c-0.968-1.225-0.775-3.033,0.452-4c1.226-0.967,3.033-0.775,4.001,0.451l44.396,56.012c0.967,1.225,0.773,3.031-0.453,4
		C-72.265,605.768-72.911,605.961-73.491,605.961"/>
</g>
</svg>
