<?xml version="1.0" encoding="utf-8"?>
<!-- Generator: Adobe Illustrator 19.0.0, SVG Export Plug-In . SVG Version: 6.00 Build 0)  -->
<svg version="1.1" id="Layer_3" xmlns="http://www.w3.org/2000/svg" xmlns:xlink="http://www.w3.org/1999/xlink" x="0px" y="0px"
	 viewBox="0 0 611 306" style="enable-background:new 0 0 611 306;" xml:space="preserve">
<style type="text/css">
	.st0{fill:#51AEE2;}
	.st1{fill:#F6891F;}
</style>
<path id="XMLID_30_" class="st0" d="M310.6,150.3c-0.1-0.1-0.2-0.1-0.3-0.1c-0.1,0-0.2,0.2-0.2,0.3v10.7c0,0.4-0.1,0.7-0.4,1
	c-0.3,0.3-0.6,0.4-1,0.4h-3.4c-0.4,0-0.7-0.1-1-0.4c-0.3-0.3-0.4-0.6-0.4-1v-45.3c0-0.4,0.1-0.7,0.4-1c0.3-0.3,0.6-0.4,1-0.4h3.4
	c0.4,0,0.7,0.1,1,0.4c0.3,0.3,0.4,0.6,0.4,1v23.5c0,0.5,0.2,0.5,0.5,0.3l11.1-10.2c0.2-0.2,0.4-0.4,0.7-0.6c0.3-0.2,0.7-0.3,1.2-0.3
	h3.7c0.7,0,1.2,0.3,1.4,0.8c0.2,0.6,0.1,1-0.3,1.4L314.4,144c-0.6,0.6-0.6,1.1,0,1.6l15.4,14.8c0.5,0.4,0.5,0.9,0.3,1.4
	c-0.3,0.5-0.7,0.8-1.4,0.8h-4.3c-0.5,0-0.9-0.1-1.3-0.4c-0.3-0.2-0.6-0.5-0.8-0.6L310.6,150.3z"/>
<path id="XMLID_66_" class="st0" d="M356.7,120.3c0,0.7-0.4,1.1-1.1,1.1H351c-0.7,0-1.1-0.4-1.1-1.1v-4.7c0-0.3,0.1-0.5,0.3-0.7
	c0.2-0.2,0.5-0.3,0.8-0.3h4.6c0.3,0,0.6,0.1,0.8,0.3c0.2,0.2,0.3,0.5,0.3,0.7V120.3z M341.3,134.4c-0.4,0-0.7-0.1-1-0.4
	c-0.3-0.3-0.4-0.6-0.4-1v-3.1c0-0.4,0.1-0.7,0.4-1c0.3-0.3,0.6-0.4,1-0.4h13.8c0.4,0,0.7,0.1,1,0.4c0.3,0.3,0.4,0.6,0.4,1v26.2
	c0,0.5,0.2,0.7,0.7,0.7h8.6c0.4,0,0.7,0.1,1,0.4c0.3,0.3,0.4,0.6,0.4,1v3.1c0,0.4-0.1,0.7-0.4,1c-0.3,0.3-0.6,0.4-1,0.4h-25.1
	c-0.4,0-0.7-0.1-1-0.4c-0.3-0.3-0.4-0.6-0.4-1v-3.1c0-0.4,0.1-0.7,0.4-1c0.3-0.3,0.6-0.4,1-0.4h8.9c0.5,0,0.7-0.2,0.7-0.7V135
	c0-0.5-0.2-0.7-0.7-0.7H341.3z"/>
<path id="XMLID_63_" class="st0" d="M388.5,157.1c2.4,0,4.2-0.7,5.6-2c1.4-1.4,2.1-2.9,2.2-4.8c0.1-1.4,0.1-3,0.1-4.8
	c0-1.8,0-3.4-0.1-4.8c-0.1-1.8-0.9-3.4-2.2-4.8c-1.4-1.4-3.2-2-5.6-2c-2.4,0-4.2,0.7-5.6,2c-1.4,1.4-2.1,2.9-2.2,4.8
	c-0.1,1.4-0.1,3-0.1,4.8c0,1.8,0,3.4,0.1,4.8c0.1,1.8,0.9,3.4,2.2,4.8C384.3,156.5,386.1,157.1,388.5,157.1 M387.8,163.3
	c-1.8,0-3.4-0.3-4.9-1c-1.5-0.7-2.8-1.6-4-2.8c-1.1-1.2-2.1-2.5-2.8-4.1c-0.7-1.6-1.1-3.3-1.3-5c-0.1-1.4-0.1-2.9-0.1-4.8
	c0-1.8,0-3.4,0.1-4.8c0.1-1.8,0.6-3.4,1.3-5c0.7-1.6,1.6-3,2.8-4.1c1.1-1.2,2.5-2.1,4-2.8c1.5-0.7,3.2-1,4.9-1
	c0.8,0,1.5,0.1,2.1,0.3c0.6,0.2,1.2,0.4,1.7,0.6c0.5,0.2,1,0.4,1.4,0.6c0.4,0.2,0.8,0.3,1.2,0.3c0.5,0,0.9-0.1,1.1-0.4
	c0.2-0.2,0.4-0.7,0.4-1.3v-12c0-0.4,0.1-0.7,0.4-1c0.3-0.3,0.6-0.4,1-0.4h3.4c0.4,0,0.7,0.1,1,0.4c0.3,0.3,0.4,0.6,0.4,1v45.3
	c0,0.4-0.1,0.7-0.4,1c-0.3,0.3-0.6,0.4-1,0.4h-2.3c-0.3,0-0.6-0.2-1-0.5c-0.2-0.2-0.5-0.5-0.7-0.7c-0.3-0.2-0.6-0.4-1-0.4
	c-0.5,0-0.9,0.1-1.3,0.3c-0.4,0.2-0.8,0.5-1.3,0.8c-0.5,0.3-1.1,0.6-1.9,0.8C390.1,163.1,389.1,163.3,387.8,163.3"/>
<path id="XMLID_25_" class="st0" d="M413.2,151.5c0-0.4,0.1-0.7,0.4-1c0.3-0.3,0.6-0.4,1-0.4h3.4c0.4,0,0.7,0.1,1,0.4
	c0.3,0.3,0.4,0.6,0.4,1c0,1.2,0.2,2.2,0.7,3c0.5,0.8,1.1,1.4,1.8,1.8c0.7,0.4,1.5,0.7,2.4,0.9c0.9,0.2,1.7,0.2,2.4,0.2
	c0.9,0,1.8-0.1,2.7-0.2c0.9-0.1,1.7-0.4,2.3-0.8c0.7-0.4,1.2-0.9,1.6-1.5c0.4-0.6,0.6-1.5,0.6-2.5c0-0.7-0.2-1.3-0.6-1.9
	c-0.4-0.5-0.9-1-1.6-1.3c-0.7-0.3-1.4-0.6-2.3-0.9c-0.9-0.2-1.8-0.5-2.8-0.7c-1.4-0.3-2.8-0.6-4.3-1c-1.5-0.4-2.8-0.9-4-1.6
	c-1.2-0.7-2.2-1.6-2.9-2.8c-0.7-1.2-1.1-2.7-1.1-4.5c0-1.5,0.4-2.9,1.1-4.1c0.7-1.2,1.6-2.2,2.8-3.1c1.2-0.9,2.5-1.5,3.9-2
	c1.5-0.5,3-0.7,4.5-0.7c1.5,0,3,0.2,4.5,0.7c1.4,0.5,2.7,1.1,3.9,2c1.1,0.9,2,1.9,2.7,3.2c0.7,1.2,1,2.7,1,4.3c0,0.4-0.1,0.7-0.4,1
	c-0.3,0.3-0.6,0.4-1,0.4H434c-0.4,0-0.7-0.1-1-0.4c-0.3-0.3-0.4-0.6-0.4-1c0-1.2-0.5-2.2-1.4-3.1c-0.9-0.9-2.5-1.3-4.6-1.3
	c-2.1,0-3.7,0.4-4.6,1.3c-0.9,0.9-1.4,1.8-1.4,2.8c0,1.2,0.6,2.1,1.7,2.6c1.2,0.5,2.6,0.9,4.2,1.2c1.4,0.3,2.9,0.6,4.5,0.9
	c1.6,0.3,3,0.9,4.3,1.6c1.3,0.7,2.4,1.8,3.3,3.1c0.9,1.3,1.3,3,1.3,5.2c0,1.8-0.4,3.4-1.1,4.8c-0.7,1.4-1.7,2.5-3,3.4
	c-1.2,0.9-2.7,1.6-4.3,2c-1.6,0.5-3.3,0.7-5.1,0.7c-1.7,0-3.4-0.2-5-0.6c-1.6-0.4-3-1.1-4.3-2.1c-1.2-1-2.3-2.2-3-3.7
	C413.6,155.4,413.2,153.6,413.2,151.5"/>
<path id="XMLID_24_" class="st1" d="M469.4,157.1c2.1,0,3.8-0.5,5-1.6c1.3-1.1,1.9-2.4,1.9-4c0-0.5,0.1-0.8,0.4-0.9
	c0.3-0.2,0.6-0.2,0.9-0.2h3.5c0.4,0,0.7,0.1,1,0.4c0.3,0.3,0.4,0.6,0.4,1c0,1.6-0.3,3.2-1,4.6c-0.7,1.4-1.6,2.6-2.7,3.7
	c-1.2,1-2.5,1.8-4.1,2.4c-1.6,0.6-3.4,0.9-5.3,0.9c-2,0-3.9-0.3-5.5-1c-1.6-0.7-3-1.6-4.2-2.8c-1.2-1.2-2.1-2.5-2.7-4.1
	c-0.7-1.6-1.1-3.3-1.2-5c-0.1-1.4-0.1-2.9-0.1-4.8c0-1.8,0-3.4,0.1-4.8c0.1-1.8,0.5-3.4,1.2-5c0.7-1.6,1.6-3,2.7-4.1
	c1.2-1.2,2.5-2.1,4.2-2.8c1.6-0.7,3.5-1,5.5-1c1.9,0,3.7,0.3,5.3,0.9c1.6,0.6,3,1.4,4.1,2.4c1.2,1,2.1,2.2,2.7,3.7
	c0.7,1.4,1,3,1,4.6c0,0.4-0.1,0.7-0.3,1c-0.2,0.3-0.5,0.4-0.9,0.4h-3.7c-0.3,0-0.6-0.1-0.9-0.3c-0.3-0.2-0.4-0.5-0.4-0.8
	c0-1.6-0.6-2.9-1.9-4c-1.3-1.1-3-1.7-5.1-1.7c-2.4,0-4.2,0.7-5.4,2c-1.2,1.4-1.9,2.9-2.1,4.8c-0.1,1.4-0.1,3-0.1,4.8
	c0,1.8,0,3.4,0.1,4.8c0.1,1.8,0.8,3.4,2.1,4.8C465.2,156.5,467,157.1,469.4,157.1"/>
<path id="XMLID_58_" class="st1" d="M506.4,157.1c2.4,0,4.2-0.7,5.6-2c1.4-1.4,2.1-2.9,2.2-4.8c0.1-1.4,0.1-3,0.1-4.8
	c0-1.8,0-3.4-0.1-4.8c-0.1-1.8-0.9-3.4-2.2-4.8c-1.4-1.4-3.2-2-5.6-2c-2.4,0-4.2,0.7-5.6,2c-1.4,1.4-2.1,2.9-2.2,4.8
	c-0.1,1.4-0.1,3-0.1,4.8c0,1.8,0,3.4,0.1,4.8c0.1,1.8,0.9,3.4,2.2,4.8C502.2,156.5,504,157.1,506.4,157.1 M506.4,127.9
	c2,0,3.9,0.3,5.5,1c1.7,0.7,3.1,1.6,4.3,2.8c1.2,1.2,2.2,2.5,2.9,4.1c0.7,1.6,1.1,3.3,1.3,5c0.1,1.4,0.1,2.9,0.1,4.8
	c0,1.8,0,3.4-0.1,4.8c-0.1,1.8-0.6,3.4-1.3,5c-0.7,1.6-1.7,3-2.9,4.1c-1.2,1.2-2.6,2.1-4.3,2.8c-1.7,0.7-3.5,1-5.5,1
	c-2,0-3.9-0.3-5.5-1c-1.7-0.7-3.1-1.6-4.3-2.8c-1.2-1.2-2.2-2.5-2.9-4.1c-0.7-1.6-1.1-3.3-1.3-5c-0.1-1.4-0.1-2.9-0.1-4.8
	c0-1.8,0-3.4,0.1-4.8c0.1-1.8,0.6-3.4,1.3-5c0.7-1.6,1.7-3,2.9-4.1c1.2-1.2,2.6-2.1,4.3-2.8C502.5,128.2,504.4,127.9,506.4,127.9"/>
<path id="XMLID_55_" class="st1" d="M543,157.1c2.4,0,4.2-0.7,5.6-2c1.4-1.4,2.1-2.9,2.2-4.8c0.1-1.4,0.1-3,0.1-4.8
	c0-1.8,0-3.4-0.1-4.8c-0.1-1.8-0.9-3.4-2.2-4.8c-1.4-1.4-3.2-2-5.6-2c-2.4,0-4.2,0.7-5.6,2c-1.4,1.4-2.1,2.9-2.2,4.8
	c-0.1,1.4-0.1,3-0.1,4.8c0,1.8,0,3.4,0.1,4.8c0.1,1.8,0.9,3.4,2.2,4.8C538.8,156.5,540.7,157.1,543,157.1 M542.4,163.3
	c-1.8,0-3.4-0.3-4.9-1c-1.5-0.7-2.8-1.6-4-2.8c-1.1-1.2-2.1-2.5-2.8-4.1c-0.7-1.6-1.1-3.3-1.3-5c-0.1-1.4-0.1-2.9-0.1-4.8
	c0-1.8,0-3.4,0.1-4.8c0.1-1.8,0.6-3.4,1.3-5c0.7-1.6,1.6-3,2.8-4.1c1.1-1.2,2.5-2.1,4-2.8c1.5-0.7,3.2-1,4.9-1
	c0.8,0,1.5,0.1,2.1,0.3c0.6,0.2,1.2,0.4,1.7,0.6c0.5,0.2,1,0.4,1.4,0.6c0.4,0.2,0.8,0.3,1.2,0.3c0.5,0,0.9-0.1,1.1-0.4
	c0.2-0.2,0.4-0.7,0.4-1.3v-12c0-0.4,0.1-0.7,0.4-1c0.3-0.3,0.6-0.4,1-0.4h3.4c0.4,0,0.7,0.1,1,0.4c0.3,0.3,0.4,0.6,0.4,1v45.3
	c0,0.4-0.1,0.7-0.4,1c-0.3,0.3-0.6,0.4-1,0.4h-2.3c-0.3,0-0.6-0.2-1-0.5c-0.2-0.2-0.5-0.5-0.7-0.7c-0.3-0.2-0.6-0.4-1-0.4
	c-0.5,0-0.9,0.1-1.3,0.3c-0.4,0.2-0.8,0.5-1.3,0.8c-0.5,0.3-1.1,0.6-1.9,0.8C544.6,163.1,543.6,163.3,542.4,163.3"/>
<path id="XMLID_52_" class="st1" d="M573.7,141.4c0,0.5,0.2,0.7,0.7,0.7h14.1c0.5,0,0.7-0.2,0.7-0.7c0-2.4-0.7-4.2-2.2-5.5
	c-1.5-1.3-3.3-1.9-5.4-1.9c-2.4,0-4.2,0.7-5.7,2.1C574.4,137.6,573.7,139.4,573.7,141.4 M573.6,148.2c0,3.1,0.7,5.4,2.2,6.8
	c1.4,1.4,3.4,2.1,5.7,2.1c1.8,0,3.3-0.4,4.5-1.2c1.2-0.8,2.1-1.8,2.5-3.1c0.1-0.5,0.4-0.8,0.6-0.9c0.3-0.2,0.6-0.2,0.9-0.2h3.5
	c0.4,0,0.7,0.1,0.9,0.3c0.2,0.2,0.3,0.6,0.2,1.1c-0.2,1.5-0.7,2.9-1.4,4.1c-0.7,1.2-1.7,2.3-2.8,3.2c-1.2,0.9-2.5,1.6-4,2.1
	c-1.5,0.5-3.2,0.7-4.9,0.7c-2,0-3.9-0.3-5.5-1c-1.7-0.7-3.1-1.6-4.3-2.8c-1.2-1.2-2.2-2.5-2.9-4.1c-0.7-1.6-1.1-3.3-1.3-5
	c-0.1-1.4-0.1-2.9-0.1-4.8c0-1.8,0-3.4,0.1-4.8c0.1-1.8,0.6-3.4,1.3-5c0.7-1.6,1.7-3,2.9-4.1c1.2-1.2,2.6-2.1,4.3-2.8
	c1.7-0.7,3.5-1,5.5-1c4.1,0,7.4,1.2,9.9,3.6c2.5,2.4,3.7,5.7,3.7,10v4.7c0,0.4-0.1,0.7-0.4,1c-0.3,0.3-0.6,0.4-1,0.4h-19.4
	C573.8,147.6,573.6,147.8,573.6,148.2"/>
<path id="XMLID_49_" class="st0" d="M323.4,185.7c0,0.7-0.4,1.1-1.1,1.1h-4.6c-0.7,0-1.1-0.4-1.1-1.1V181c0-0.3,0.1-0.5,0.3-0.7
	c0.2-0.2,0.5-0.3,0.8-0.3h4.6c0.3,0,0.6,0.1,0.8,0.3c0.2,0.2,0.3,0.5,0.3,0.7V185.7z M323.1,231.2c0,1.5-0.3,2.9-0.9,4.2
	c-0.6,1.3-1.3,2.5-2.3,3.5c-1,1-2.2,1.8-3.5,2.4c-1.3,0.6-2.7,0.9-4.2,0.9c-1.5,0-2.9-0.3-4.2-0.9c-1.3-0.6-2.5-1.3-3.5-2.3
	c-1-1-1.8-2.2-2.3-3.5c-0.6-1.3-0.9-2.7-0.9-4.2c0-0.4,0.1-0.7,0.4-1c0.3-0.3,0.6-0.4,1-0.4h3.4c0.4,0,0.7,0.1,1,0.4
	c0.3,0.3,0.4,0.6,0.4,1c0,1.2,0.4,2.3,1.2,3.3c0.8,1,2,1.5,3.6,1.5c1.6,0,2.7-0.5,3.5-1.6c0.7-1,1.1-2.2,1.1-3.4v-30.7
	c0-0.5-0.2-0.7-0.7-0.7h-9.9c-0.4,0-0.7-0.1-1-0.4c-0.3-0.3-0.4-0.6-0.4-1v-3.1c0-0.4,0.1-0.7,0.4-1c0.3-0.3,0.6-0.4,1-0.4h15.5
	c0.4,0,0.7,0.1,1,0.4c0.3,0.3,0.4,0.6,0.4,1V231.2z"/>
<path id="XMLID_46_" class="st0" d="M343.7,206.9c0,0.5,0.2,0.7,0.7,0.7h14.1c0.5,0,0.7-0.2,0.7-0.7c0-2.4-0.7-4.2-2.2-5.5
	c-1.5-1.3-3.3-1.9-5.4-1.9c-2.4,0-4.2,0.7-5.7,2.1C344.4,203,343.7,204.8,343.7,206.9 M343.5,213.6c0,3.1,0.7,5.4,2.2,6.8
	c1.4,1.4,3.4,2.1,5.7,2.1c1.8,0,3.3-0.4,4.5-1.2c1.2-0.8,2.1-1.8,2.5-3.1c0.1-0.5,0.4-0.8,0.6-0.9c0.3-0.2,0.6-0.2,0.9-0.2h3.5
	c0.4,0,0.7,0.1,0.9,0.3c0.2,0.2,0.3,0.6,0.2,1.1c-0.2,1.5-0.7,2.9-1.4,4.1c-0.7,1.2-1.7,2.3-2.8,3.2c-1.2,0.9-2.5,1.6-4,2.1
	c-1.5,0.5-3.2,0.7-4.9,0.7c-2,0-3.9-0.3-5.5-1c-1.7-0.7-3.1-1.6-4.3-2.8c-1.2-1.2-2.2-2.5-2.9-4.1c-0.7-1.6-1.1-3.3-1.3-5
	c-0.1-1.4-0.1-2.9-0.1-4.8c0-1.8,0-3.4,0.1-4.8c0.1-1.8,0.6-3.4,1.3-5c0.7-1.6,1.7-3,2.9-4.1c1.2-1.2,2.6-2.1,4.3-2.8
	c1.7-0.7,3.5-1,5.5-1c4.1,0,7.4,1.2,9.9,3.6c2.5,2.4,3.7,5.7,3.7,10v4.7c0,0.4-0.1,0.7-0.4,1c-0.3,0.3-0.6,0.4-1,0.4h-19.4
	C343.8,213,343.5,213.2,343.5,213.6"/>
<path id="XMLID_13_" class="st0" d="M395.1,226.4c-0.5,0-0.9,0.1-1.3,0.3c-0.3,0.2-0.7,0.5-1.2,0.8c-0.5,0.3-1.1,0.6-1.8,0.8
	c-0.7,0.2-1.7,0.3-3,0.3c-1.9,0-3.6-0.3-5.2-1c-1.6-0.6-2.9-1.5-4.1-2.7c-1.1-1.2-2-2.5-2.7-4.1c-0.6-1.6-1-3.3-1-5.2v-20.4
	c0-0.4,0.1-0.7,0.4-1c0.3-0.3,0.6-0.4,1-0.4h3.4c0.4,0,0.7,0.1,1,0.4c0.3,0.3,0.4,0.6,0.4,1v20.4c0,2,0.7,3.6,2,4.9
	c1.3,1.3,3.1,1.9,5.5,1.9c2.1,0,3.9-0.6,5.3-1.7c1.4-1.2,2.1-2.7,2.1-4.7v-20.7c0-0.4,0.1-0.7,0.4-1c0.3-0.3,0.6-0.4,1-0.4h3.4
	c0.4,0,0.7,0.1,1,0.4c0.3,0.3,0.4,0.6,0.4,1v31.3c0,0.4-0.1,0.7-0.4,1c-0.3,0.3-0.6,0.4-1,0.4h-3c-0.3,0-0.6-0.2-1-0.5
	c-0.2-0.2-0.5-0.5-0.7-0.7C395.8,226.6,395.5,226.4,395.1,226.4"/>
<path id="XMLID_12_" class="st0" d="M419.7,195.6c0.5,0,0.9-0.1,1.3-0.3c0.4-0.2,0.8-0.5,1.3-0.8c0.5-0.3,1.1-0.6,1.8-0.8
	c0.7-0.2,1.7-0.3,2.9-0.3c1.8,0,3.4,0.3,5,1c1.6,0.6,3,1.5,4.1,2.7c1.2,1.2,2.1,2.5,2.8,4.1c0.7,1.6,1,3.3,1,5.2v20.4
	c0,0.4-0.1,0.7-0.4,1c-0.3,0.3-0.6,0.4-1,0.4h-3.4c-0.4,0-0.7-0.1-1-0.4c-0.3-0.3-0.4-0.6-0.4-1v-20.4c0-2-0.7-3.6-2.1-4.9
	c-1.4-1.3-3.2-1.9-5.3-1.9c-2.1,0-3.9,0.6-5.3,1.7c-1.4,1.2-2.1,2.7-2.1,4.7v20.7c0,0.4-0.1,0.7-0.4,1c-0.3,0.3-0.6,0.4-1,0.4H414
	c-0.4,0-0.7-0.1-1-0.4c-0.3-0.3-0.4-0.6-0.4-1v-31.3c0-0.4,0.1-0.7,0.4-1c0.3-0.3,0.6-0.4,1-0.4h3c0.3,0,0.6,0.2,1,0.5
	c0.2,0.2,0.5,0.5,0.7,0.7C419,195.4,419.3,195.6,419.7,195.6"/>
<path id="XMLID_41_" class="st0" d="M455.8,206.9c0,0.5,0.2,0.7,0.7,0.7h14.1c0.5,0,0.7-0.2,0.7-0.7c0-2.4-0.7-4.2-2.2-5.5
	c-1.5-1.3-3.3-1.9-5.4-1.9c-2.4,0-4.2,0.7-5.7,2.1C456.5,203,455.8,204.8,455.8,206.9 M455.7,213.6c0,3.1,0.7,5.4,2.2,6.8
	c1.4,1.4,3.4,2.1,5.7,2.1c1.8,0,3.3-0.4,4.5-1.2c1.2-0.8,2.1-1.8,2.5-3.1c0.1-0.5,0.4-0.8,0.6-0.9c0.3-0.2,0.6-0.2,0.9-0.2h3.5
	c0.4,0,0.7,0.1,0.9,0.3c0.2,0.2,0.3,0.6,0.2,1.1c-0.2,1.5-0.7,2.9-1.4,4.1c-0.7,1.2-1.7,2.3-2.8,3.2c-1.2,0.9-2.5,1.6-4,2.1
	c-1.5,0.5-3.2,0.7-4.9,0.7c-2,0-3.9-0.3-5.5-1c-1.7-0.7-3.1-1.6-4.3-2.8c-1.2-1.2-2.2-2.5-2.9-4.1c-0.7-1.6-1.1-3.3-1.3-5
	c-0.1-1.4-0.1-2.9-0.1-4.8c0-1.8,0-3.4,0.1-4.8c0.1-1.8,0.6-3.4,1.3-5c0.7-1.6,1.7-3,2.9-4.1c1.2-1.2,2.6-2.1,4.3-2.8
	c1.7-0.7,3.5-1,5.5-1c4.1,0,7.4,1.2,9.9,3.6c2.5,2.4,3.7,5.7,3.7,10v4.7c0,0.4-0.1,0.7-0.4,1c-0.3,0.3-0.6,0.4-1,0.4h-19.4
	C455.9,213,455.7,213.2,455.7,213.6"/>
<path id="XMLID_9_" class="st0" d="M487.2,216.9c0-0.4,0.1-0.7,0.4-1c0.3-0.3,0.6-0.4,1-0.4h3.4c0.4,0,0.7,0.1,1,0.4
	c0.3,0.3,0.4,0.6,0.4,1c0,1.2,0.2,2.2,0.7,3c0.5,0.8,1.1,1.4,1.8,1.8c0.7,0.4,1.5,0.7,2.4,0.9c0.9,0.2,1.7,0.2,2.4,0.2
	c0.9,0,1.8-0.1,2.7-0.2c0.9-0.1,1.7-0.4,2.3-0.8c0.7-0.4,1.2-0.9,1.6-1.5c0.4-0.6,0.6-1.5,0.6-2.5c0-0.7-0.2-1.3-0.6-1.9
	c-0.4-0.5-0.9-1-1.6-1.3c-0.7-0.3-1.4-0.6-2.3-0.9c-0.9-0.2-1.8-0.5-2.8-0.7c-1.4-0.3-2.8-0.6-4.3-1c-1.5-0.4-2.8-0.9-4-1.6
	c-1.2-0.7-2.2-1.6-2.9-2.8c-0.7-1.2-1.1-2.7-1.1-4.5c0-1.5,0.4-2.9,1.1-4.1c0.7-1.2,1.6-2.2,2.8-3.1c1.2-0.9,2.5-1.5,3.9-2
	c1.5-0.5,3-0.7,4.5-0.7c1.5,0,3,0.2,4.5,0.7c1.4,0.5,2.7,1.1,3.9,2c1.1,0.9,2,1.9,2.7,3.2c0.7,1.2,1,2.7,1,4.3c0,0.4-0.1,0.7-0.4,1
	c-0.3,0.3-0.6,0.4-1,0.4H508c-0.4,0-0.7-0.1-1-0.4c-0.3-0.3-0.4-0.6-0.4-1c0-1.2-0.5-2.2-1.4-3.1c-0.9-0.9-2.5-1.3-4.6-1.3
	c-2.1,0-3.7,0.4-4.6,1.3c-0.9,0.9-1.4,1.8-1.4,2.8c0,1.2,0.6,2.1,1.7,2.6c1.2,0.5,2.6,0.9,4.2,1.2c1.4,0.3,2.9,0.6,4.5,0.9
	c1.6,0.3,3,0.9,4.3,1.6c1.3,0.7,2.4,1.8,3.3,3.1c0.9,1.3,1.3,3,1.3,5.2c0,1.8-0.4,3.4-1.1,4.8c-0.7,1.4-1.7,2.5-3,3.4
	c-1.2,0.9-2.7,1.6-4.3,2c-1.6,0.5-3.3,0.7-5.1,0.7c-1.7,0-3.4-0.2-5-0.6c-1.6-0.4-3-1.1-4.3-2.1c-1.2-1-2.3-2.2-3-3.7
	C487.6,220.8,487.2,219,487.2,216.9"/>
<path id="XMLID_8_" class="st0" d="M524.6,216.9c0-0.4,0.1-0.7,0.4-1c0.3-0.3,0.6-0.4,1-0.4h3.4c0.4,0,0.7,0.1,1,0.4
	c0.3,0.3,0.4,0.6,0.4,1c0,1.2,0.2,2.2,0.7,3c0.5,0.8,1.1,1.4,1.8,1.8c0.7,0.4,1.5,0.7,2.4,0.9c0.9,0.2,1.7,0.2,2.4,0.2
	c0.9,0,1.8-0.1,2.7-0.2c0.9-0.1,1.7-0.4,2.3-0.8c0.7-0.4,1.2-0.9,1.6-1.5c0.4-0.6,0.6-1.5,0.6-2.5c0-0.7-0.2-1.3-0.6-1.9
	c-0.4-0.5-0.9-1-1.6-1.3c-0.7-0.3-1.4-0.6-2.3-0.9c-0.9-0.2-1.8-0.5-2.8-0.7c-1.4-0.3-2.8-0.6-4.3-1c-1.5-0.4-2.8-0.9-4-1.6
	c-1.2-0.7-2.2-1.6-2.9-2.8c-0.7-1.2-1.1-2.7-1.1-4.5c0-1.5,0.4-2.9,1.1-4.1c0.7-1.2,1.6-2.2,2.8-3.1c1.2-0.9,2.5-1.5,3.9-2
	c1.5-0.5,3-0.7,4.5-0.7c1.5,0,3,0.2,4.5,0.7c1.4,0.5,2.7,1.1,3.9,2c1.1,0.9,2,1.9,2.7,3.2c0.7,1.2,1,2.7,1,4.3c0,0.4-0.1,0.7-0.4,1
	c-0.3,0.3-0.6,0.4-1,0.4h-3.4c-0.4,0-0.7-0.1-1-0.4c-0.3-0.3-0.4-0.6-0.4-1c0-1.2-0.5-2.2-1.4-3.1c-0.9-0.9-2.5-1.3-4.6-1.3
	c-2.1,0-3.7,0.4-4.6,1.3c-0.9,0.9-1.4,1.8-1.4,2.8c0,1.2,0.6,2.1,1.7,2.6c1.2,0.5,2.6,0.9,4.2,1.2c1.4,0.3,2.9,0.6,4.5,0.9
	c1.6,0.3,3,0.9,4.3,1.6c1.3,0.7,2.4,1.8,3.3,3.1c0.9,1.3,1.3,3,1.3,5.2c0,1.8-0.4,3.4-1.1,4.8c-0.7,1.4-1.7,2.5-3,3.4
	c-1.2,0.9-2.7,1.6-4.3,2c-1.6,0.5-3.3,0.7-5.1,0.7c-1.7,0-3.4-0.2-5-0.6c-1.6-0.4-3-1.1-4.3-2.1c-1.2-1-2.3-2.2-3-3.7
	C525,220.8,524.6,219,524.6,216.9"/>
<path id="XMLID_36_" class="st0" d="M568,206.9c0,0.5,0.2,0.7,0.7,0.7h14.1c0.5,0,0.7-0.2,0.7-0.7c0-2.4-0.7-4.2-2.2-5.5
	c-1.5-1.3-3.3-1.9-5.4-1.9c-2.4,0-4.2,0.7-5.7,2.1C568.7,203,568,204.8,568,206.9 M567.8,213.6c0,3.1,0.7,5.4,2.2,6.8
	c1.4,1.4,3.4,2.1,5.7,2.1c1.8,0,3.3-0.4,4.5-1.2c1.2-0.8,2.1-1.8,2.5-3.1c0.1-0.5,0.4-0.8,0.6-0.9c0.3-0.2,0.6-0.2,0.9-0.2h3.5
	c0.4,0,0.7,0.1,0.9,0.3c0.2,0.2,0.3,0.6,0.2,1.1c-0.2,1.5-0.7,2.9-1.4,4.1c-0.7,1.2-1.7,2.3-2.8,3.2c-1.2,0.9-2.5,1.6-4,2.1
	c-1.5,0.5-3.2,0.7-4.9,0.7c-2,0-3.9-0.3-5.5-1c-1.7-0.7-3.1-1.6-4.3-2.8c-1.2-1.2-2.2-2.5-2.9-4.1c-0.7-1.6-1.1-3.3-1.3-5
	c-0.1-1.4-0.1-2.9-0.1-4.8c0-1.8,0-3.4,0.1-4.8c0.1-1.8,0.6-3.4,1.3-5c0.7-1.6,1.7-3,2.9-4.1c1.2-1.2,2.6-2.1,4.3-2.8
	c1.7-0.7,3.5-1,5.5-1c4.1,0,7.4,1.2,9.9,3.6c2.5,2.4,3.7,5.7,3.7,10v4.7c0,0.4-0.1,0.7-0.4,1c-0.3,0.3-0.6,0.4-1,0.4h-19.4
	C568.1,213,567.8,213.2,567.8,213.6"/>
<path id="XMLID_5_" class="st0" d="M200.5,229.5c-1,0-1.9-0.3-2.7-0.9c-1.9-1.5-2.2-4.3-0.7-6.2l68.8-86.8c1.5-1.9,4.3-2.2,6.2-0.7
	c1.9,1.5,2.2,4.3,0.7,6.2L204,227.9C203.1,229,201.8,229.5,200.5,229.5"/>
<path id="XMLID_4_" class="st1" d="M182,63.7c-16.5,0-30.7,9.5-37.6,23.3c-6.9-13.8-21.2-23.3-37.6-23.3c-23.2,0-42,18.8-42,42
	c0,2.4,2,4.4,4.4,4.4c2.4,0,4.4-2,4.4-4.4c0-18.3,14.9-33.2,33.2-33.2S140,87.4,140,105.7c0,2.4,2,4.4,4.4,4.4s4.4-2,4.4-4.4
	c0-18.3,14.9-33.2,33.2-33.2c18.3,0,33.2,14.9,33.2,33.2c0,2.4,2,4.4,4.4,4.4c2.4,0,4.4-2,4.4-4.4C224,82.6,205.2,63.7,182,63.7"/>
<path id="XMLID_3_" class="st1" d="M216.7,133.3c-1.9-1.5-4.7-1.2-6.2,0.7l-66.2,84l-66.2-84c-1.5-1.9-4.3-2.2-6.2-0.7
	c-1.9,1.5-2.2,4.3-0.7,6.2l69.6,88.4c0.8,1.1,2.1,1.7,3.4,1.7c1.3,0,2.6-0.6,3.4-1.7l69.6-88.4C219,137.6,218.6,134.8,216.7,133.3"
	/>
<path id="XMLID_2_" class="st0" d="M88.3,229.5c-1.3,0-2.6-0.6-3.4-1.7L16,141c-1.5-1.9-1.2-4.7,0.7-6.2c1.9-1.5,4.7-1.2,6.2,0.7
	l68.8,86.8c1.5,1.9,1.2,4.7-0.7,6.2C90.2,229.2,89.2,229.5,88.3,229.5"/>
</svg>
